# xmcd CD Database Entry
#
# Track frame offsets:
# 150
# 23714
# 39271
# 59248
# 95945
# 110422
# 130561
# 148853
# 165493
# 176082
# 198757
#
# Disc length: 4135 seconds
#
# Revision: 2
# Processed by: cddbd v1.4b42PL1 Copyright (c) Steve Scherf et al.
# Submitted via: tcd 2.0b
#
DISCID=9810250b
DTITLE=Cyril Neville - New Orleans Cookin'
DYEAR=1900
DGENRE=
TTITLE0=tipitina
TTITLE1=tell it (like it is)
TTITLE2=that mellow saxophone
TTITLE3=fortune teller
TTITLE4=sick and tired
TTITLE5=no buts, no maybes
TTITLE6=new orleans cookin'
TTITLE7=soul train
TTITLE8=all by myself
TTITLE9=i'm ready
TTITLE10=Data
EXTD=
EXTT0=
EXTT1=
EXTT2=
EXTT3=
EXTT4=
EXTT5=
EXTT6=
EXTT7=
EXTT8=
EXTT9=
EXTT10=
PLAYORDER=
